Coordinates
version=1
nRows=16
nColumns=36
inDegrees=yes

Units are S.I. units (second, meters, Newtons, ...)
If the header above contains a line with 'inDegrees', this indicates whether rotational values are in degrees (yes) or radians (no).

endheader
time	pelvis_tilt	pelvis_list	pelvis_rotation	pelvis_tx	pelvis_ty	pelvis_tz	hip_flexion_r	hip_adduction_r	hip_rotation_r	knee_angle_r	knee_angle_r_beta	ankle_angle_r	subtalar_angle_r	mtp_angle_r	hip_flexion_l	hip_adduction_l	hip_rotation_l	knee_angle_l	knee_angle_l_beta	ankle_angle_l	subtalar_angle_l	mtp_angle_l	lumbar_extension	lumbar_bending	lumbar_rotation	arm_flex_r	arm_add_r	arm_rot_r	elbow_flex_r	pro_sup_r	arm_flex_l	arm_add_l	arm_rot_l	elbow_flex_l	pro_sup_l
      5.76666670	     18.66738901	     -3.17118991	     -3.91141959	     -0.08285637	      0.76691498	      0.08152576	      9.52586735	     14.96286406	      3.38895121	     66.02316701	      1.15232165	     25.77928521	    -13.29900680	     -7.49999987	     22.94226831	     -7.94981774	      4.40467565	      2.73009909	      0.04764922	    -15.59631081	      8.73633940	     -7.49999987	    -29.24864822	      6.22579396	      1.74580234	     48.27801269	      9.14113509	     63.79645387	    133.44541976	    100.38147959	     52.57430482	     17.98490443	     70.74066271	    131.81151083	     74.82968151
      5.78333330	     18.61653334	     -3.17726491	     -3.85553474	     -0.07938467	      0.76377949	      0.08121891	      9.53688006	     14.97229710	      3.25568198	     66.06910524	      1.15312342	     26.15832190	    -13.75658440	     -7.49999987	     22.91437466	     -8.03239057	      3.59922622	      2.60991673	      0.04555164	    -13.45753700	      7.80976757	     -7.49999987	    -29.10966272	      6.14459390	      1.24723171	     48.62658504	      9.30662790	     63.62613227	    133.84393820	    100.95772591	     52.71412785	     17.80130793	     70.00786494	    131.76069355	     75.27023753
      5.80000000	     18.48134421	     -2.64950761	     -3.84029762	     -0.07775263	      0.76834258	      0.08060712	      9.61375156	     14.34435423	      3.14462927	     65.81920698	      1.14876187	     24.08576986	    -14.68739905	     -7.49999987	     22.59080791	     -7.48553384	      3.33003923	      2.33094523	      0.04068267	    -13.92735810	      8.15677273	     -7.49999987	    -28.89645126	      5.36045116	      0.78135530	     48.74287254	      9.32560091	     63.77882616	    133.86441083	     95.14211837	     52.66334629	     17.76770813	     70.04896792	    131.75262550	     71.56723894
      5.81666670	     18.16166188	     -2.50293066	     -3.60377393	     -0.07799026	      0.76976050	      0.08141062	      9.93099098	     14.18064465	      2.83687215	     65.13820233	      1.13687610	     23.85138213	    -15.10807030	     -7.49999987	     22.64184704	     -7.33264310	      3.94122425	      2.25497343	      0.03935671	    -14.17362407	      7.28613457	     -7.49999987	    -28.40851055	      5.12913463	      0.26837734	     48.60613083	      9.46916515	     63.26165631	    134.00007239	    101.93336324	     52.59727251	     17.59494412	     69.60660209	    131.77169231	     75.57996810
      5.83333330	     18.17667499	     -2.70650639	     -3.47870449	     -0.08383826	      0.77177135	      0.08169672	     10.05898390	     14.26901409	      2.30908402	     64.90715817	      1.13284362	     21.09365800	    -15.90614268	     -7.49999987	     22.70127696	     -7.50670569	      4.07165981	      2.39025795	      0.04171787	    -14.27791424	      6.87510089	     -7.49999987	    -28.26224531	      5.14052092	      0.23317596	     48.98242674	      9.52780920	     63.20260671	    134.16814337	    101.94179342	     52.58101234	     17.62674560	     69.44694560	    131.99037694	     75.61233589
      5.85000000	     18.22847912	     -2.93271833	     -3.09368720	     -0.07834817	      0.77549059	      0.08072135	      9.46395822	     14.29134329	      1.98300973	     64.21546334	      1.12077127	     19.68309264	    -15.19083414	     -7.49999987	     22.49095633	     -7.55874048	      3.74168901	      2.58335232	      0.04508800	    -13.21358442	      6.92133091	     -7.49999987	    -27.92336768	      5.33265192	      0.15494300	     48.87422350	      9.40411557	     63.04237237	    133.91972158	    101.78016754	     52.46800169	     17.61167257	     69.41655105	    132.00043564	     75.42167121
      5.86666670	     18.13718582	     -3.16298091	     -2.99147509	     -0.08089122	      0.77659700	      0.08086829	      8.90996134	     14.25279705	      1.81586410	     63.02454912	      1.09998589	     19.19137575	    -14.87700359	     -7.49999987	     22.35040448	     -7.79444475	      3.98032836	      2.30740851	      0.04027188	    -13.58126870	      8.23730714	     -7.49999987	    -27.53489156	      5.46001906	      0.11586505	     48.69633444	      9.46469394	     63.26802737	    134.15595205	    102.23304434	     52.46185712	     17.37085680	     68.97470936	    131.98534653	     75.38457674
      5.88333330	     17.91706191	     -2.95679316	     -2.50719216	     -0.07831752	      0.77891455	      0.07948150	      9.03190218	     13.77878807	      1.37952129	     62.62808695	      1.09306632	     18.32194787	    -14.61785800	     -7.49999987	     22.16251603	     -7.42868660	      4.11830928	      2.05168498	      0.03580866	    -13.88712860	      7.87152775	     -7.49999987	    -26.99531310	      5.14743992	     -0.07775623	     48.18046679	      9.39741765	     63.34755369	    134.24917221	    102.73603126	     52.30776915	     17.43937931	     69.05287875	    131.92817232	     75.07777924
      5.90000000	     17.61350816	     -2.68409814	     -2.46382065	     -0.07806963	      0.77974116	      0.08065964	      8.80900199	     13.31863482	      1.17339822	     61.75757742	      1.07787306	     19.83969463	    -14.73102267	     -7.49999987	     22.25465643	     -7.13466636	      3.86019170	      1.99278460	      0.03478065	    -13.61388468	      7.46460875	     -7.49999987	    -26.32531206	      4.70251208	     -0.33525396	     47.81857657	      9.55028349	     63.27956444	    134.06201667	    102.79759075	     52.43840733	     16.95942442	     68.30074727	    131.54555374	     74.71748664
      5.91666670	     17.51008766	     -2.49029825	     -2.36346818	     -0.08316404	      0.78241485	      0.08163917	      8.65181313	     13.05571617	      1.03817553	     61.25125352	      1.06903604	     19.92636469	    -14.71035204	     -7.49999987	     22.51942017	     -6.93525605	      3.91960442	      2.07867807	      0.03627978	    -13.95353390	      7.55759746	     -7.49999987	    -25.91502580	      4.29810849	     -0.09334031	     48.02033528	      9.78933071	     63.28415129	    134.18418875	    102.79543651	     52.56654212	     16.84287037	     68.17556559	    131.62988849	     74.71542003
      5.93333330	     17.41434259	     -2.24992313	     -2.07893207	     -0.07819184	      0.78805033	      0.08074787	      7.76034555	     12.52259225	      0.58777288	     60.78117822	      1.06083168	     18.67844917	    -13.84137543	     -7.49999987	     22.53123340	     -6.57323531	      3.63644852	      2.53645519	      0.04426949	    -14.06793597	      6.69903658	     -7.49999987	    -25.00004905	      4.01968695	     -0.57224795	     47.97386106	     10.10105051	     63.14632203	    134.18648732	    102.75485864	     52.68010389	     15.89710690	     66.51657596	    131.02761957	     74.51472345
      5.95000000	     17.39028748	     -2.38313565	     -1.86631016	     -0.07822691	      0.79219058	      0.07964308	      7.01652742	     12.41503489	      0.41437924	     59.22418960	      1.03365711	     19.41888024	    -13.96981543	     -7.49999987	     22.44772803	     -6.48395822	      3.16830372	      2.67415561	      0.04667282	    -12.88759568	      6.07522244	     -7.49999987	    -24.42619897	      4.18945401	     -0.44241950	     48.32994211	     10.31025281	     63.24298323	    133.96048432	    102.12738226	     52.57230947	     15.69347555	     66.31535043	    131.53514289	     73.41679053
      5.96666670	     17.21808541	     -2.17607532	     -1.69630117	     -0.07717515	      0.79287264	      0.07990796	      6.38541631	     12.13159984	      0.34819168	     57.95921798	      1.01157919	     20.76979303	    -13.47930484	     -7.49999987	     22.60249147	     -6.08377536	      2.82229798	      2.85610784	      0.04984849	    -11.62785338	      5.50916859	     -7.49999987	    -23.76473398	      3.86303231	     -0.44549678	     48.71346252	     10.60344069	     63.28233635	    133.83205142	    101.76007825	     52.72126318	     15.35222241	     65.76462717	    131.43232709	     73.25018169
      5.98333330	     17.01379858	     -1.97706266	     -1.41157676	     -0.07823567	      0.80302201	      0.07847637	      5.74675737	     11.73520237	      0.13355074	     56.19967442	      0.98086936	     19.60925674	    -13.67623060	     -7.49999987	     22.38197979	     -5.65739754	      2.45590244	      2.54950585	      0.04449727	    -12.25011653	      5.61214057	     -7.49999987	    -23.31438604	      3.65103300	     -0.41280843	     48.88825734	     10.73001703	     63.51159165	    133.62302439	    101.82834084	     52.89608571	     15.04982161	     65.39226418	    131.25655626	     73.18849145
      6.00000000	     16.77314383	     -1.47676643	     -0.92636766	     -0.07986822	      0.80704603	      0.07895759	      5.03021716	     11.19872092	      0.00721659	     54.42969737	      0.94997743	     19.94614550	    -12.99477808	     -7.49999987	     22.46581770	     -4.85276511	      2.12909993	      2.46418849	      0.04300820	    -12.93321040	      5.85934052	     -7.49999987	    -23.00506738	      3.11508125	     -0.44285272	     49.12128574	     10.84037469	     64.30327625	    134.16606587	    102.31513737	     53.09084923	     14.78049519	     65.24505643	    130.89018091	     72.71518072
      6.01666670	     16.44760647	     -1.17421510	     -0.77072818	     -0.08258097	      0.81080343	      0.07760729	      4.75398895	     10.84097039	     -0.12707176	     52.96293515	      0.92437760	     19.00476786	    -13.58023320	     -7.49999987	     22.70524318	     -4.26382300	      2.38547611	      2.55096569	      0.04452275	    -13.14169426	      5.90626395	     -7.49999987	    -22.67571576	      2.80370792	     -0.31469529	     49.41780799	     10.96150845	     65.23247450	    134.90329118	    101.95036998	     53.21754043	     14.43264772	     64.97948056	    130.46790085	     72.30010958
